<svg xmlns="http://www.w3.org/2000/svg" xmlns:xlink="http://www.w3.org/1999/xlink" width="500" zoomAndPan="magnify" viewBox="0 0 375 374.999991" height="500" preserveAspectRatio="xMidYMid meet" version="1.0"><defs><g/><clipPath id="4cf5e9ff62"><path d="M 0.0390625 10 L 36 10 L 36 37 L 0.0390625 37 Z M 0.0390625 10 " clip-rule="nonzero"/></clipPath><clipPath id="187a6fb8e6"><path d="M 45 0.078125 L 77 0.078125 L 77 37 L 45 37 Z M 45 0.078125 " clip-rule="nonzero"/></clipPath><clipPath id="e8ad05c5e5"><path d="M 86 0.078125 L 117 0.078125 L 117 37 L 86 37 Z M 86 0.078125 " clip-rule="nonzero"/></clipPath><clipPath id="b557e2faa7"><path d="M 162 0.078125 L 198 0.078125 L 198 37 L 162 37 Z M 162 0.078125 " clip-rule="nonzero"/></clipPath><clipPath id="9854746391"><path d="M 248 0.078125 L 279 0.078125 L 279 37 L 248 37 Z M 248 0.078125 " clip-rule="nonzero"/></clipPath><clipPath id="19e79e3b95"><path d="M 288 0.078125 L 319 0.078125 L 319 37 L 288 37 Z M 288 0.078125 " clip-rule="nonzero"/></clipPath><clipPath id="5581539982"><path d="M 0.0390625 13 L 36 13 L 36 39 L 0.0390625 39 Z M 0.0390625 13 " clip-rule="nonzero"/></clipPath><clipPath id="08ebbdd225"><rect x="0" width="365" y="0" height="101"/></clipPath></defs><g transform="matrix(1, 0, 0, 1, 5, 136)"><g clip-path="url(#08ebbdd225)"><g clip-path="url(#4cf5e9ff62)"><g fill="#eaeaea" fill-opacity="0.4"><g transform="translate(0.19504, 41.318672)"><g><path d="M 0 -5.0625 L 0 -30.34375 L 30.34375 -30.34375 L 30.34375 -25.296875 L 35.40625 -25.296875 L 35.40625 -5.0625 L 25.296875 -5.0625 L 25.296875 -25.296875 L 20.234375 -25.296875 L 20.234375 -5.0625 L 10.109375 -5.0625 L 10.109375 -25.296875 L 5.0625 -25.296875 L 5.0625 -5.0625 Z M 0 -5.0625 "/></g></g></g></g><g clip-path="url(#187a6fb8e6)"><g fill="#eaeaea" fill-opacity="0.4"><g transform="translate(40.657794, 41.318672)"><g><path d="M 15.171875 -35.40625 L 15.171875 -40.46875 L 25.296875 -40.46875 L 25.296875 -35.40625 Z M 5.0625 -5.0625 L 5.0625 -10.109375 L 15.171875 -10.109375 L 15.171875 -25.296875 L 10.109375 -25.296875 L 10.109375 -30.34375 L 25.296875 -30.34375 L 25.296875 -10.109375 L 35.40625 -10.109375 L 35.40625 -5.0625 Z M 5.0625 -5.0625 "/></g></g></g></g><g clip-path="url(#e8ad05c5e5)"><g fill="#eaeaea" fill-opacity="0.4"><g transform="translate(81.120548, 41.318672)"><g><path d="M 15.171875 -5.0625 L 15.171875 -25.296875 L 5.0625 -25.296875 L 5.0625 -30.34375 L 15.171875 -30.34375 L 15.171875 -40.46875 L 25.296875 -40.46875 L 25.296875 -30.34375 L 35.40625 -30.34375 L 35.40625 -25.296875 L 25.296875 -25.296875 L 25.296875 -5.0625 Z M 15.171875 -5.0625 "/></g></g></g></g><g fill="#eaeaea" fill-opacity="0.4"><g transform="translate(121.583302, 41.318672)"><g><path d="M 5.0625 -5.0625 L 5.0625 -10.109375 L 0 -10.109375 L 0 -25.296875 L 5.0625 -25.296875 L 5.0625 -30.34375 L 35.40625 -30.34375 L 35.40625 -25.296875 L 10.109375 -25.296875 L 10.109375 -10.109375 L 35.40625 -10.109375 L 35.40625 -5.0625 Z M 5.0625 -5.0625 "/></g></g></g><g clip-path="url(#b557e2faa7)"><g fill="#eaeaea" fill-opacity="0.4"><g transform="translate(162.046055, 41.318672)"><g><path d="M 0 -5.0625 L 0 -40.46875 L 10.109375 -40.46875 L 10.109375 -30.34375 L 30.34375 -30.34375 L 30.34375 -25.296875 L 35.40625 -25.296875 L 35.40625 -5.0625 L 25.296875 -5.0625 L 25.296875 -25.296875 L 10.109375 -25.296875 L 10.109375 -5.0625 Z M 0 -5.0625 "/></g></g></g></g><g fill="#eaeaea" fill-opacity="0.4"><g transform="translate(202.508809, 41.318672)"><g><path d="M 5.0625 -5.0625 L 5.0625 -10.109375 L 0 -10.109375 L 0 -25.296875 L 5.0625 -25.296875 L 5.0625 -30.34375 L 30.34375 -30.34375 L 30.34375 -25.296875 L 35.40625 -25.296875 L 35.40625 -15.171875 L 10.109375 -15.171875 L 10.109375 -10.109375 L 30.34375 -10.109375 L 30.34375 -5.0625 Z M 10.109375 -20.234375 L 25.296875 -20.234375 L 25.296875 -25.296875 L 10.109375 -25.296875 Z M 10.109375 -20.234375 "/></g></g></g><g clip-path="url(#9854746391)"><g fill="#eaeaea" fill-opacity="0.4"><g transform="translate(242.971563, 41.318672)"><g><path d="M 5.0625 -5.0625 L 5.0625 -10.109375 L 15.171875 -10.109375 L 15.171875 -35.40625 L 10.109375 -35.40625 L 10.109375 -40.46875 L 25.296875 -40.46875 L 25.296875 -10.109375 L 35.40625 -10.109375 L 35.40625 -5.0625 Z M 5.0625 -5.0625 "/></g></g></g></g><g clip-path="url(#19e79e3b95)"><g fill="#eaeaea" fill-opacity="0.4"><g transform="translate(283.434331, 41.318672)"><g><path d="M 5.0625 -5.0625 L 5.0625 -10.109375 L 15.171875 -10.109375 L 15.171875 -35.40625 L 10.109375 -35.40625 L 10.109375 -40.46875 L 25.296875 -40.46875 L 25.296875 -10.109375 L 35.40625 -10.109375 L 35.40625 -5.0625 Z M 5.0625 -5.0625 "/></g></g></g></g><g fill="#eaeaea" fill-opacity="0.4"><g transform="translate(0.19504, 97.530464)"><g><path d="M 15.171875 -5.0625 L 15.171875 -25.296875 L 5.0625 -25.296875 L 5.0625 -30.34375 L 15.171875 -30.34375 L 15.171875 -40.46875 L 25.296875 -40.46875 L 25.296875 -30.34375 L 35.40625 -30.34375 L 35.40625 -25.296875 L 25.296875 -25.296875 L 25.296875 -5.0625 Z M 15.171875 -5.0625 "/></g></g></g><g fill="#eaeaea" fill-opacity="0.4"><g transform="translate(40.657794, 97.530464)"><g><path d="M 0 -5.0625 L 0 -40.46875 L 10.109375 -40.46875 L 10.109375 -30.34375 L 30.34375 -30.34375 L 30.34375 -25.296875 L 35.40625 -25.296875 L 35.40625 -5.0625 L 25.296875 -5.0625 L 25.296875 -25.296875 L 10.109375 -25.296875 L 10.109375 -5.0625 Z M 0 -5.0625 "/></g></g></g><g fill="#eaeaea" fill-opacity="0.4"><g transform="translate(81.120548, 97.530464)"><g><path d="M 5.0625 -5.0625 L 5.0625 -10.109375 L 0 -10.109375 L 0 -25.296875 L 5.0625 -25.296875 L 5.0625 -30.34375 L 30.34375 -30.34375 L 30.34375 -25.296875 L 35.40625 -25.296875 L 35.40625 -10.109375 L 30.34375 -10.109375 L 30.34375 -5.0625 Z M 10.109375 -10.109375 L 25.296875 -10.109375 L 25.296875 -25.296875 L 10.109375 -25.296875 Z M 10.109375 -10.109375 "/></g></g></g><g fill="#eaeaea" fill-opacity="0.4"><g transform="translate(121.583302, 97.530464)"><g><path d="M 0 -5.0625 L 0 -30.34375 L 30.34375 -30.34375 L 30.34375 -25.296875 L 35.40625 -25.296875 L 35.40625 -5.0625 L 25.296875 -5.0625 L 25.296875 -25.296875 L 20.234375 -25.296875 L 20.234375 -5.0625 L 10.109375 -5.0625 L 10.109375 -25.296875 L 5.0625 -25.296875 L 5.0625 -5.0625 Z M 0 -5.0625 "/></g></g></g><g fill="#eaeaea" fill-opacity="0.4"><g transform="translate(162.046055, 97.530464)"><g><path d="M 5.0625 -5.0625 L 5.0625 -10.109375 L 0 -10.109375 L 0 -15.171875 L 5.0625 -15.171875 L 5.0625 -20.234375 L 25.296875 -20.234375 L 25.296875 -25.296875 L 5.0625 -25.296875 L 5.0625 -30.34375 L 30.34375 -30.34375 L 30.34375 -25.296875 L 35.40625 -25.296875 L 35.40625 -5.0625 Z M 10.109375 -10.109375 L 25.296875 -10.109375 L 25.296875 -15.171875 L 10.109375 -15.171875 Z M 10.109375 -10.109375 "/></g></g></g><g fill="#eaeaea" fill-opacity="0.4"><g transform="translate(202.508809, 97.530464)"><g><path d="M 0 -5.0625 L 0 -10.109375 L 25.296875 -10.109375 L 25.296875 -15.171875 L 5.0625 -15.171875 L 5.0625 -20.234375 L 0 -20.234375 L 0 -25.296875 L 5.0625 -25.296875 L 5.0625 -30.34375 L 30.34375 -30.34375 L 30.34375 -25.296875 L 10.109375 -25.296875 L 10.109375 -20.234375 L 30.34375 -20.234375 L 30.34375 -15.171875 L 35.40625 -15.171875 L 35.40625 -10.109375 L 30.34375 -10.109375 L 30.34375 -5.0625 Z M 0 -5.0625 "/></g></g></g><g fill="#eaeaea" fill-opacity="0.4"><g transform="translate(242.971563, 97.530464)"><g><path d="M 20.234375 -5.0625 L 20.234375 -10.109375 L 15.171875 -10.109375 L 15.171875 -15.171875 L 10.109375 -15.171875 L 10.109375 -20.234375 L 5.0625 -20.234375 L 5.0625 -25.296875 L 10.109375 -25.296875 L 10.109375 -30.34375 L 15.171875 -30.34375 L 15.171875 -35.40625 L 20.234375 -35.40625 L 20.234375 -40.46875 L 30.34375 -40.46875 L 30.34375 -35.40625 L 25.296875 -35.40625 L 25.296875 -30.34375 L 20.234375 -30.34375 L 20.234375 -25.296875 L 15.171875 -25.296875 L 15.171875 -20.234375 L 20.234375 -20.234375 L 20.234375 -15.171875 L 25.296875 -15.171875 L 25.296875 -10.109375 L 30.34375 -10.109375 L 30.34375 -5.0625 Z M 20.234375 -5.0625 "/></g></g></g><g fill="#eaeaea" fill-opacity="0.4"><g transform="translate(283.434331, 97.530464)"><g><path d="M 35.40625 -40.46875 L 35.40625 -35.40625 L 30.34375 -35.40625 L 30.34375 -40.46875 Z M 25.296875 -35.40625 L 30.34375 -35.40625 L 30.34375 -30.34375 L 25.296875 -30.34375 Z M 20.234375 -30.34375 L 25.296875 -30.34375 L 25.296875 -25.296875 L 20.234375 -25.296875 Z M 15.171875 -25.296875 L 20.234375 -25.296875 L 20.234375 -20.234375 L 15.171875 -20.234375 Z M 10.109375 -20.234375 L 15.171875 -20.234375 L 15.171875 -15.171875 L 10.109375 -15.171875 Z M 5.0625 -15.171875 L 10.109375 -15.171875 L 10.109375 -10.109375 L 5.0625 -10.109375 Z M 0 -10.109375 L 5.0625 -10.109375 L 5.0625 -5.0625 L 0 -5.0625 Z M 0 -10.109375 "/></g></g></g><g fill="#eaeaea" fill-opacity="0.4"><g transform="translate(323.897071, 97.530464)"><g><path d="M 5.0625 -5.0625 L 5.0625 -10.109375 L 10.109375 -10.109375 L 10.109375 -15.171875 L 15.171875 -15.171875 L 15.171875 -20.234375 L 20.234375 -20.234375 L 20.234375 -25.296875 L 15.171875 -25.296875 L 15.171875 -30.34375 L 10.109375 -30.34375 L 10.109375 -35.40625 L 5.0625 -35.40625 L 5.0625 -40.46875 L 15.171875 -40.46875 L 15.171875 -35.40625 L 20.234375 -35.40625 L 20.234375 -30.34375 L 25.296875 -30.34375 L 25.296875 -25.296875 L 30.34375 -25.296875 L 30.34375 -20.234375 L 25.296875 -20.234375 L 25.296875 -15.171875 L 20.234375 -15.171875 L 20.234375 -10.109375 L 15.171875 -10.109375 L 15.171875 -5.0625 Z M 5.0625 -5.0625 "/></g></g></g><g clip-path="url(#5581539982)"><g fill="#eaeaea" fill-opacity="1"><g transform="translate(0.19504, 43.74665)"><g><path d="M 0 -5.0625 L 0 -30.34375 L 30.34375 -30.34375 L 30.34375 -25.296875 L 35.40625 -25.296875 L 35.40625 -5.0625 L 25.296875 -5.0625 L 25.296875 -25.296875 L 20.234375 -25.296875 L 20.234375 -5.0625 L 10.109375 -5.0625 L 10.109375 -25.296875 L 5.0625 -25.296875 L 5.0625 -5.0625 Z M 0 -5.0625 "/></g></g></g></g><g fill="#eaeaea" fill-opacity="1"><g transform="translate(40.657794, 43.74665)"><g><path d="M 15.171875 -35.40625 L 15.171875 -40.46875 L 25.296875 -40.46875 L 25.296875 -35.40625 Z M 5.0625 -5.0625 L 5.0625 -10.109375 L 15.171875 -10.109375 L 15.171875 -25.296875 L 10.109375 -25.296875 L 10.109375 -30.34375 L 25.296875 -30.34375 L 25.296875 -10.109375 L 35.40625 -10.109375 L 35.40625 -5.0625 Z M 5.0625 -5.0625 "/></g></g></g><g fill="#eaeaea" fill-opacity="1"><g transform="translate(81.120548, 43.74665)"><g><path d="M 15.171875 -5.0625 L 15.171875 -25.296875 L 5.0625 -25.296875 L 5.0625 -30.34375 L 15.171875 -30.34375 L 15.171875 -40.46875 L 25.296875 -40.46875 L 25.296875 -30.34375 L 35.40625 -30.34375 L 35.40625 -25.296875 L 25.296875 -25.296875 L 25.296875 -5.0625 Z M 15.171875 -5.0625 "/></g></g></g><g fill="#eaeaea" fill-opacity="1"><g transform="translate(121.583302, 43.74665)"><g><path d="M 5.0625 -5.0625 L 5.0625 -10.109375 L 0 -10.109375 L 0 -25.296875 L 5.0625 -25.296875 L 5.0625 -30.34375 L 35.40625 -30.34375 L 35.40625 -25.296875 L 10.109375 -25.296875 L 10.109375 -10.109375 L 35.40625 -10.109375 L 35.40625 -5.0625 Z M 5.0625 -5.0625 "/></g></g></g><g fill="#eaeaea" fill-opacity="1"><g transform="translate(162.046055, 43.74665)"><g><path d="M 0 -5.0625 L 0 -40.46875 L 10.109375 -40.46875 L 10.109375 -30.34375 L 30.34375 -30.34375 L 30.34375 -25.296875 L 35.40625 -25.296875 L 35.40625 -5.0625 L 25.296875 -5.0625 L 25.296875 -25.296875 L 10.109375 -25.296875 L 10.109375 -5.0625 Z M 0 -5.0625 "/></g></g></g><g fill="#eaeaea" fill-opacity="1"><g transform="translate(202.508809, 43.74665)"><g><path d="M 5.0625 -5.0625 L 5.0625 -10.109375 L 0 -10.109375 L 0 -25.296875 L 5.0625 -25.296875 L 5.0625 -30.34375 L 30.34375 -30.34375 L 30.34375 -25.296875 L 35.40625 -25.296875 L 35.40625 -15.171875 L 10.109375 -15.171875 L 10.109375 -10.109375 L 30.34375 -10.109375 L 30.34375 -5.0625 Z M 10.109375 -20.234375 L 25.296875 -20.234375 L 25.296875 -25.296875 L 10.109375 -25.296875 Z M 10.109375 -20.234375 "/></g></g></g><g fill="#eaeaea" fill-opacity="1"><g transform="translate(242.971563, 43.74665)"><g><path d="M 5.0625 -5.0625 L 5.0625 -10.109375 L 15.171875 -10.109375 L 15.171875 -35.40625 L 10.109375 -35.40625 L 10.109375 -40.46875 L 25.296875 -40.46875 L 25.296875 -10.109375 L 35.40625 -10.109375 L 35.40625 -5.0625 Z M 5.0625 -5.0625 "/></g></g></g><g fill="#eaeaea" fill-opacity="1"><g transform="translate(283.434331, 43.74665)"><g><path d="M 5.0625 -5.0625 L 5.0625 -10.109375 L 15.171875 -10.109375 L 15.171875 -35.40625 L 10.109375 -35.40625 L 10.109375 -40.46875 L 25.296875 -40.46875 L 25.296875 -10.109375 L 35.40625 -10.109375 L 35.40625 -5.0625 Z M 5.0625 -5.0625 "/></g></g></g><g fill="#eaeaea" fill-opacity="1"><g transform="translate(0.19504, 99.958442)"><g><path d="M 15.171875 -5.0625 L 15.171875 -25.296875 L 5.0625 -25.296875 L 5.0625 -30.34375 L 15.171875 -30.34375 L 15.171875 -40.46875 L 25.296875 -40.46875 L 25.296875 -30.34375 L 35.40625 -30.34375 L 35.40625 -25.296875 L 25.296875 -25.296875 L 25.296875 -5.0625 Z M 15.171875 -5.0625 "/></g></g></g><g fill="#eaeaea" fill-opacity="1"><g transform="translate(40.657794, 99.958442)"><g><path d="M 0 -5.0625 L 0 -40.46875 L 10.109375 -40.46875 L 10.109375 -30.34375 L 30.34375 -30.34375 L 30.34375 -25.296875 L 35.40625 -25.296875 L 35.40625 -5.0625 L 25.296875 -5.0625 L 25.296875 -25.296875 L 10.109375 -25.296875 L 10.109375 -5.0625 Z M 0 -5.0625 "/></g></g></g><g fill="#eaeaea" fill-opacity="1"><g transform="translate(81.120548, 99.958442)"><g><path d="M 5.0625 -5.0625 L 5.0625 -10.109375 L 0 -10.109375 L 0 -25.296875 L 5.0625 -25.296875 L 5.0625 -30.34375 L 30.34375 -30.34375 L 30.34375 -25.296875 L 35.40625 -25.296875 L 35.40625 -10.109375 L 30.34375 -10.109375 L 30.34375 -5.0625 Z M 10.109375 -10.109375 L 25.296875 -10.109375 L 25.296875 -25.296875 L 10.109375 -25.296875 Z M 10.109375 -10.109375 "/></g></g></g><g fill="#eaeaea" fill-opacity="1"><g transform="translate(121.583302, 99.958442)"><g><path d="M 0 -5.0625 L 0 -30.34375 L 30.34375 -30.34375 L 30.34375 -25.296875 L 35.40625 -25.296875 L 35.40625 -5.0625 L 25.296875 -5.0625 L 25.296875 -25.296875 L 20.234375 -25.296875 L 20.234375 -5.0625 L 10.109375 -5.0625 L 10.109375 -25.296875 L 5.0625 -25.296875 L 5.0625 -5.0625 Z M 0 -5.0625 "/></g></g></g><g fill="#eaeaea" fill-opacity="1"><g transform="translate(162.046055, 99.958442)"><g><path d="M 5.0625 -5.0625 L 5.0625 -10.109375 L 0 -10.109375 L 0 -15.171875 L 5.0625 -15.171875 L 5.0625 -20.234375 L 25.296875 -20.234375 L 25.296875 -25.296875 L 5.0625 -25.296875 L 5.0625 -30.34375 L 30.34375 -30.34375 L 30.34375 -25.296875 L 35.40625 -25.296875 L 35.40625 -5.0625 Z M 10.109375 -10.109375 L 25.296875 -10.109375 L 25.296875 -15.171875 L 10.109375 -15.171875 Z M 10.109375 -10.109375 "/></g></g></g><g fill="#eaeaea" fill-opacity="1"><g transform="translate(202.508809, 99.958442)"><g><path d="M 0 -5.0625 L 0 -10.109375 L 25.296875 -10.109375 L 25.296875 -15.171875 L 5.0625 -15.171875 L 5.0625 -20.234375 L 0 -20.234375 L 0 -25.296875 L 5.0625 -25.296875 L 5.0625 -30.34375 L 30.34375 -30.34375 L 30.34375 -25.296875 L 10.109375 -25.296875 L 10.109375 -20.234375 L 30.34375 -20.234375 L 30.34375 -15.171875 L 35.40625 -15.171875 L 35.40625 -10.109375 L 30.34375 -10.109375 L 30.34375 -5.0625 Z M 0 -5.0625 "/></g></g></g><g fill="#eaeaea" fill-opacity="1"><g transform="translate(242.971563, 99.958442)"><g><path d="M 20.234375 -5.0625 L 20.234375 -10.109375 L 15.171875 -10.109375 L 15.171875 -15.171875 L 10.109375 -15.171875 L 10.109375 -20.234375 L 5.0625 -20.234375 L 5.0625 -25.296875 L 10.109375 -25.296875 L 10.109375 -30.34375 L 15.171875 -30.34375 L 15.171875 -35.40625 L 20.234375 -35.40625 L 20.234375 -40.46875 L 30.34375 -40.46875 L 30.34375 -35.40625 L 25.296875 -35.40625 L 25.296875 -30.34375 L 20.234375 -30.34375 L 20.234375 -25.296875 L 15.171875 -25.296875 L 15.171875 -20.234375 L 20.234375 -20.234375 L 20.234375 -15.171875 L 25.296875 -15.171875 L 25.296875 -10.109375 L 30.34375 -10.109375 L 30.34375 -5.0625 Z M 20.234375 -5.0625 "/></g></g></g><g fill="#eaeaea" fill-opacity="1"><g transform="translate(283.434331, 99.958442)"><g><path d="M 35.40625 -40.46875 L 35.40625 -35.40625 L 30.34375 -35.40625 L 30.34375 -40.46875 Z M 25.296875 -35.40625 L 30.34375 -35.40625 L 30.34375 -30.34375 L 25.296875 -30.34375 Z M 20.234375 -30.34375 L 25.296875 -30.34375 L 25.296875 -25.296875 L 20.234375 -25.296875 Z M 15.171875 -25.296875 L 20.234375 -25.296875 L 20.234375 -20.234375 L 15.171875 -20.234375 Z M 10.109375 -20.234375 L 15.171875 -20.234375 L 15.171875 -15.171875 L 10.109375 -15.171875 Z M 5.0625 -15.171875 L 10.109375 -15.171875 L 10.109375 -10.109375 L 5.0625 -10.109375 Z M 0 -10.109375 L 5.0625 -10.109375 L 5.0625 -5.0625 L 0 -5.0625 Z M 0 -10.109375 "/></g></g></g><g fill="#eaeaea" fill-opacity="1"><g transform="translate(323.897071, 99.958442)"><g><path d="M 5.0625 -5.0625 L 5.0625 -10.109375 L 10.109375 -10.109375 L 10.109375 -15.171875 L 15.171875 -15.171875 L 15.171875 -20.234375 L 20.234375 -20.234375 L 20.234375 -25.296875 L 15.171875 -25.296875 L 15.171875 -30.34375 L 10.109375 -30.34375 L 10.109375 -35.40625 L 5.0625 -35.40625 L 5.0625 -40.46875 L 15.171875 -40.46875 L 15.171875 -35.40625 L 20.234375 -35.40625 L 20.234375 -30.34375 L 25.296875 -30.34375 L 25.296875 -25.296875 L 30.34375 -25.296875 L 30.34375 -20.234375 L 25.296875 -20.234375 L 25.296875 -15.171875 L 20.234375 -15.171875 L 20.234375 -10.109375 L 15.171875 -10.109375 L 15.171875 -5.0625 Z M 5.0625 -5.0625 "/></g></g></g></g></g></svg>