<svg xmlns="http://www.w3.org/2000/svg" xmlns:xlink="http://www.w3.org/1999/xlink" width="500" zoomAndPan="magnify" viewBox="0 0 375 374.999991" height="500" preserveAspectRatio="xMidYMid meet" version="1.0"><defs><g/></defs><g fill="#eaeaea" fill-opacity="1"><g transform="translate(5.19504, 167.249996)"><g><path d="M 4.328125 0 L 4.328125 -34.765625 L 16.75 -34.765625 L 16.75 -29.984375 L 22.59375 -34.765625 L 34.5625 -34.765625 L 40.078125 -29.1875 L 46.921875 -34.765625 L 58.890625 -34.765625 L 66.265625 -27.3125 L 66.265625 0 L 53.84375 0 L 53.84375 -25.59375 L 51.578125 -27.71875 L 47.984375 -27.71875 L 41.9375 -22.59375 L 41.9375 0 L 29.515625 0 L 29.515625 -25.59375 L 27.25 -27.71875 L 23.65625 -27.71875 L 16.75 -21.875 L 16.75 0 Z M 4.328125 0 "/></g></g></g><g fill="#eaeaea" fill-opacity="1"><g transform="translate(75.107896, 167.249996)"><g><path d="M 4.328125 -38.546875 L 4.328125 -47.859375 L 16.75 -47.859375 L 16.75 -38.546875 Z M 4.328125 0 L 4.328125 -34.765625 L 16.75 -34.765625 L 16.75 0 Z M 4.328125 0 "/></g></g></g><g fill="#eaeaea" fill-opacity="1"><g transform="translate(96.174797, 167.249996)"><g><path d="M 11.5 0 L 4.515625 -6.453125 L 4.515625 -26.984375 L 2 -26.984375 L 2 -34.703125 L 4.984375 -34.703125 L 8.78125 -44.59375 L 16.953125 -44.59375 L 16.953125 -34.703125 L 22.40625 -34.703125 L 22.40625 -26.984375 L 16.953125 -26.984375 L 16.953125 -9.703125 L 18.75 -7.90625 L 23.796875 -7.90625 L 23.796875 0 Z M 11.5 0 "/></g></g></g><g fill="#eaeaea" fill-opacity="1"><g transform="translate(121.627864, 167.249996)"><g><path d="M 10.703125 0 L 3.328125 -7.375 L 3.328125 -27.3125 L 10.703125 -34.703125 L 30.90625 -34.703125 L 37.890625 -28.3125 L 37.890625 -21.53125 L 25.453125 -21.53125 L 25.453125 -25.453125 L 23.125 -27.78125 L 18.078125 -27.78125 L 15.75 -25.453125 L 15.75 -11.09375 L 18.078125 -8.78125 L 37.15625 -8.78125 L 37.15625 0 Z M 10.703125 0 "/></g></g></g><g fill="#eaeaea" fill-opacity="1"><g transform="translate(162.166691, 167.249996)"><g><path d="M 4.328125 0 L 4.328125 -48.984375 L 16.75 -48.984375 L 16.75 -30.640625 L 21.796875 -34.765625 L 33.765625 -34.765625 L 41.140625 -27.3125 L 41.140625 0 L 28.71875 0 L 28.71875 -25.59375 L 26.453125 -27.71875 L 22.859375 -27.71875 L 16.75 -22.53125 L 16.75 0 Z M 4.328125 0 "/></g></g></g><g fill="#eaeaea" fill-opacity="1"><g transform="translate(206.95876, 167.249996)"><g><path d="M 10.703125 0 L 3.328125 -7.375 L 3.328125 -27.3125 L 10.703125 -34.703125 L 30.25 -34.703125 L 37.625 -27.3125 L 37.625 -14.15625 L 15.75 -14.15625 L 15.75 -11.09375 L 18.140625 -8.78125 L 37.09375 -8.78125 L 37.09375 0 Z M 15.75 -21.34375 L 26.328125 -21.34375 L 26.328125 -25.453125 L 23.921875 -27.78125 L 18.140625 -27.78125 L 15.75 -25.453125 Z M 15.75 -21.34375 "/></g></g></g><g fill="#eaeaea" fill-opacity="1"><g transform="translate(248.228624, 167.249996)"><g><path d="M 4.328125 0 L 4.328125 -48.984375 L 16.75 -48.984375 L 16.75 0 Z M 4.328125 0 "/></g></g></g><g fill="#eaeaea" fill-opacity="1"><g transform="translate(269.295525, 167.249996)"><g><path d="M 4.328125 0 L 4.328125 -48.984375 L 16.75 -48.984375 L 16.75 0 Z M 4.328125 0 "/></g></g></g><g fill="#eaeaea" fill-opacity="1"><g transform="translate(5.19504, 260.24999)"><g><path d="M 11.5 0 L 4.515625 -6.453125 L 4.515625 -26.984375 L 2 -26.984375 L 2 -34.703125 L 4.984375 -34.703125 L 8.78125 -44.59375 L 16.953125 -44.59375 L 16.953125 -34.703125 L 22.40625 -34.703125 L 22.40625 -26.984375 L 16.953125 -26.984375 L 16.953125 -9.703125 L 18.75 -7.90625 L 23.796875 -7.90625 L 23.796875 0 Z M 11.5 0 "/></g></g></g><g fill="#eaeaea" fill-opacity="1"><g transform="translate(30.648106, 260.24999)"><g><path d="M 4.328125 0 L 4.328125 -48.984375 L 16.75 -48.984375 L 16.75 -30.640625 L 21.796875 -34.765625 L 33.765625 -34.765625 L 41.140625 -27.3125 L 41.140625 0 L 28.71875 0 L 28.71875 -25.59375 L 26.453125 -27.71875 L 22.859375 -27.71875 L 16.75 -22.53125 L 16.75 0 Z M 4.328125 0 "/></g></g></g><g fill="#eaeaea" fill-opacity="1"><g transform="translate(75.440187, 260.24999)"><g><path d="M 10.703125 0 L 3.328125 -7.375 L 3.328125 -27.3125 L 10.703125 -34.703125 L 32.375 -34.703125 L 39.75 -27.3125 L 39.75 -7.375 L 32.375 0 Z M 18.078125 -6.90625 L 25 -6.90625 L 27.3125 -9.3125 L 27.3125 -25.453125 L 25 -27.78125 L 18.078125 -27.78125 L 15.75 -25.453125 L 15.75 -9.3125 Z M 18.078125 -6.90625 "/></g></g></g><g fill="#eaeaea" fill-opacity="1"><g transform="translate(118.504382, 260.24999)"><g><path d="M 4.328125 0 L 4.328125 -34.765625 L 16.75 -34.765625 L 16.75 -29.984375 L 22.59375 -34.765625 L 34.5625 -34.765625 L 40.078125 -29.1875 L 46.921875 -34.765625 L 58.890625 -34.765625 L 66.265625 -27.3125 L 66.265625 0 L 53.84375 0 L 53.84375 -25.59375 L 51.578125 -27.71875 L 47.984375 -27.71875 L 41.9375 -22.59375 L 41.9375 0 L 29.515625 0 L 29.515625 -25.59375 L 27.25 -27.71875 L 23.65625 -27.71875 L 16.75 -21.875 L 16.75 0 Z M 4.328125 0 "/></g></g></g><g fill="#eaeaea" fill-opacity="1"><g transform="translate(188.417238, 260.24999)"><g><path d="M 9.375 0 L 2 -7.375 L 2 -14.75 L 9.375 -22.140625 L 25.921875 -22.140625 L 25.921875 -24.453125 L 23.53125 -26.859375 L 6.109375 -26.859375 L 6.109375 -34.703125 L 30.90625 -34.703125 L 38.359375 -27.3125 L 38.359375 0 L 25.921875 0 L 25.921875 -4.71875 L 21.34375 0 Z M 16.6875 -6.78125 L 20.265625 -6.78125 L 25.921875 -12.421875 L 25.921875 -15.953125 L 16.6875 -15.953125 L 14.359375 -13.625 L 14.359375 -9.109375 Z M 16.6875 -6.78125 "/></g></g></g><g fill="#eaeaea" fill-opacity="1"><g transform="translate(230.418117, 260.24999)"><g><path d="M 4.453125 0 L 4.453125 -8.578125 L 23.125 -8.578125 L 25 -10.375 L 25 -11.765625 L 23.125 -13.625 L 9.765625 -13.625 L 2.65625 -20.078125 L 2.65625 -28.25 L 9.703125 -34.703125 L 33.765625 -34.703125 L 33.765625 -26.1875 L 16.34375 -26.1875 L 14.6875 -24.328125 L 14.6875 -23.390625 L 16.484375 -21.53125 L 30.046875 -21.53125 L 37.15625 -15.09375 L 37.15625 -6.515625 L 30.109375 0 Z M 4.453125 0 "/></g></g></g><g fill="#eaeaea" fill-opacity="1"><g transform="translate(270.225907, 260.24999)"><g><path d="M 21.46875 -6.640625 L 3.65625 -24.53125 L 21.46875 -42.34375 L 27.65625 -36.03125 L 16.15625 -24.53125 L 27.65625 -12.96875 Z M 21.46875 -6.640625 "/></g></g></g><g fill="#eaeaea" fill-opacity="1"><g transform="translate(301.527212, 260.24999)"><g><path d="M 1 7.25 L 21.53125 -48.984375 L 35.15625 -48.984375 L 14.625 7.25 Z M 1 7.25 "/></g></g></g><g fill="#eaeaea" fill-opacity="1"><g transform="translate(337.679874, 260.24999)"><g><path d="M 9.84375 -6.640625 L 3.65625 -12.96875 L 15.15625 -24.453125 L 3.65625 -36.03125 L 9.84375 -42.34375 L 27.65625 -24.453125 Z M 9.84375 -6.640625 "/></g></g></g></svg>